<svg width="900" height="900" viewBox="0 0 900 900" fill="none" xmlns="http://www.w3.org/2000/svg">
<rect width="900" height="900" fill="white"/>
<mask id="mask0_90_8" style="mask-type:alpha" maskUnits="userSpaceOnUse" x="28" y="51" width="843" height="798">
<rect x="28.0001" y="51" width="843" height="798" fill="#D9D9D9"/>
</mask>
<g mask="url(#mask0_90_8)">
<path opacity="0.5" d="M1330.86 283.113V261.385H806.318V-799.896H968.328C1033.51 -799.896 1026.65 -857.077 1026.65 -857.077V-1079.32H573.399V-855.554C573.399 -797.989 626.77 -799.896 626.77 -799.896H794.498V261.764H270.719V283.113H794.118V585.409H270.719V607.138H1330.86V585.03H806.318V283.113H1330.86Z" fill="#225B62" stroke="black" stroke-width="4.75" stroke-miterlimit="10" stroke-linejoin="round"/>
<g opacity="0.5">
<path d="M752.631 1346.08H855.048V866.517H1131.55V789.006H470.92V866.262H752.251V1346.08H752.631Z" fill="#B9DCD2" stroke="black" stroke-width="4.75" stroke-miterlimit="10" stroke-linejoin="round"/>
<path d="M449.776 865.057H133.757L-107.739 1106.55V957.31L-100.498 949.492V865.057H-107.739V702.854H-81.628L124.036 632.901H171.684V678.646L280.713 789.006H449.776V865.057Z" fill="#B9DCD2" stroke="black" stroke-width="4.75" stroke-miterlimit="10" stroke-linejoin="round"/>
<path d="M172.006 562.569H125.497L-81.3741 490.65H-107.739V378.32H-82.8974L126.765 307.921H172.006V562.569Z" fill="#B9DCD2" stroke="black" stroke-width="4.75" stroke-miterlimit="10" stroke-linejoin="round"/>
<path d="M-107.678 -479.017V-331.11L-26.6053 -248.259V31.8026H-107.678V165.477H-82.008L125.372 238.669H198.813V108.551H648.132V32.5621H79.6269V-236.823C79.6269 -236.823 79.1169 -291.972 50.906 -320.942C22.6951 -349.912 -107.678 -479.017 -107.678 -479.017Z" fill="#B9DCD2"/>
<path d="M-107.678 -479.017V-331.11L-26.6053 -248.259V31.8025H-107.678V165.477H-82.008L125.372 238.669H198.813V108.551H648.132V32.562H79.6269V-236.823C79.6269 -236.823 79.1169 -291.972 50.906 -320.942C22.6951 -349.912 -107.678 -479.017 -107.678 -479.017Z" stroke="black" stroke-width="4.75" stroke-miterlimit="10" stroke-linejoin="round"/>
</g>
<g opacity="0.5">
<path d="M-114.297 347.517H-95.9995L121.289 289.321V257.55L-92.4429 198.082H-114.297V347.517Z" fill="#FF5C39" stroke="black" stroke-width="4.75" stroke-miterlimit="10" stroke-linejoin="round"/>
<path d="M-114.297 671.036H-95.4941L120.78 615.124V582.339L-96.5085 522.111H-114.297V671.036Z" fill="#FF5C39" stroke="black" stroke-width="4.75" stroke-miterlimit="10" stroke-linejoin="round"/>
<path d="M-107.096 234.858V309.927H-60.2079L88.4629 295.819V316.404H149.839V229.109H89.2268V250.458L-66.3057 234.858H-107.096Z" fill="#97DDBD" stroke="black" stroke-width="4.75" stroke-miterlimit="10" stroke-linejoin="round"/>
<path d="M-107.096 558.503V633.571H-60.2079L88.4629 619.464V640.049H149.839V552.754H89.2268V574.103L-66.3057 558.503H-107.096Z" fill="#97DDBD" stroke="black" stroke-width="4.75" stroke-miterlimit="10" stroke-linejoin="round"/>
<path d="M489.691 -1078.91H627.435L830.235 -827.057C830.235 -827.057 853.108 -800.628 853.108 -763.523V126.215H1382.86V249.726H1351.6L1316.53 268.024C1316.53 268.024 1309.29 272.978 1316.53 277.552C1323.78 282.127 1350.08 296.042 1350.08 296.042H1382.86V425.464H215.986V296.235H254.297L282.124 280.224C282.124 280.224 295.66 272.219 282.124 265.544C268.592 258.875 252.39 250.49 252.39 250.49H215.986V126.979H747.578V-749.608C747.578 -749.608 749.485 -759.141 740.716 -769.049C731.951 -778.962 489.691 -1078.91 489.691 -1078.91Z" fill="#B9DCD2"/>
<path d="M489.691 -1078.91H627.435L830.235 -827.057C830.235 -827.057 853.108 -800.628 853.108 -763.524V126.214H1382.86V249.725H1351.6L1316.53 268.023C1316.53 268.023 1309.29 272.977 1316.53 277.552C1323.78 282.126 1350.08 296.042 1350.08 296.042H1382.86V425.463H215.986V296.234H254.297L282.124 280.223C282.124 280.223 295.66 272.218 282.124 265.544C268.592 258.874 252.39 250.489 252.39 250.489H215.986V126.978H747.578V-749.608C747.578 -749.608 749.485 -759.141 740.716 -769.05C731.951 -778.963 489.691 -1078.91 489.691 -1078.91Z" stroke="black" stroke-width="4.75" stroke-miterlimit="10" stroke-linejoin="round"/>
<path d="M1382.86 574.451V443.632H215.986V574.451H255.061L281.235 589.698C281.235 589.698 292.037 597.703 281.619 603.676C271.196 609.649 254.173 619.816 254.173 619.816H215.986V659.714L300.297 744.851H1301.09L1382.19 663.747V620.196H1348.08L1318.72 603.707C1318.72 603.707 1308.62 596.274 1319.1 590.462C1329.59 584.65 1347.98 574.451 1347.98 574.451H1382.86Z" fill="#B9DCD2" stroke="black" stroke-width="4.75" stroke-miterlimit="10" stroke-linejoin="round"/>
<path d="M1019.83 483.533H1065.57V559.518H839.895V483.533H944.598V-758.694C944.598 -758.694 943.585 -787.919 961.119 -812.319C978.658 -836.715 1160.36 -1078.91 1160.36 -1078.91H1252.87L1019.83 -765.811V483.533Z" fill="#49C5B1" stroke="black" stroke-width="4.75" stroke-miterlimit="10" stroke-linejoin="round"/>
<path d="M834.305 477.181H1075.99V568.416H834.305V477.181Z" fill="#B9DCD2" stroke="black" stroke-width="4.75" stroke-miterlimit="10" stroke-linejoin="round"/>
</g>
<g opacity="0.5">
<path d="M503.638 -1079.85H599.323L812.036 -815.672C812.036 -815.672 830.714 -795.851 830.714 -763.83V245.224C830.714 245.224 833.765 285.635 812.416 306.98C791.067 328.329 650.022 460.225 650.022 460.225V735.458H1156.27V797.594H430.067V735.458H574.163V465.184C574.163 465.184 571.112 432.778 605.041 400.377C638.965 367.976 749.896 265.43 749.896 265.43C749.896 265.43 755.614 263.143 755.999 249.04C756.378 234.932 755.999 -754.681 755.999 -754.681C755.999 -754.681 758.666 -765.353 749.137 -776.025C739.604 -786.702 503.638 -1079.85 503.638 -1079.85Z" fill="#FF5C39"/>
<path d="M503.638 -1079.85H599.323L812.036 -815.672C812.036 -815.672 830.714 -795.851 830.714 -763.83V245.224C830.714 245.224 833.765 285.635 812.416 306.98C791.067 328.329 650.022 460.225 650.022 460.225V735.458H1156.27V797.594H430.067V735.458H574.163V465.184C574.163 465.184 571.112 432.778 605.041 400.377C638.965 367.976 749.896 265.43 749.896 265.43C749.896 265.43 755.614 263.143 755.999 249.04C756.378 234.932 755.999 -754.681 755.999 -754.681C755.999 -754.681 758.666 -765.353 749.137 -776.025C739.604 -786.702 503.638 -1079.85 503.638 -1079.85Z" fill="#FF5C39" stroke="black" stroke-width="4.75" stroke-miterlimit="10" stroke-linejoin="round"/>
<path d="M-114.298 -458.103V-350.982L-21.2846 -258.728C-21.2846 -258.728 -16.7101 -255.682 -16.7101 -246.912C-16.7101 -238.143 -17.4294 -132.255 -16.7101 -94.0468C-16.1829 -66.2019 -12.5153 17.2641 -12.5153 17.2641C-12.5153 17.2641 -10.992 42.8034 2.7315 56.9112C16.455 71.0143 147.212 183.089 147.212 183.089C147.212 183.089 156.741 190.715 156.741 198.72V453.748H218.876V230.742H185.711V196.049C185.711 196.049 189.142 181.182 174.659 164.791C160.172 148.401 54.1945 24.5056 54.1945 24.5056C54.1945 24.5056 52.2915 21.8386 52.2915 12.3099C52.2915 2.77668 56.2358 -70.5843 56.866 -98.2417C57.7145 -135.878 56.866 -248.82 56.866 -248.82C56.866 -248.82 59.9126 -282.744 35.1372 -307.524C10.3572 -332.304 -114.298 -458.103 -114.298 -458.103Z" fill="#FF5C39"/>
<path d="M-114.298 -458.103V-350.982L-21.2846 -258.728C-21.2846 -258.728 -16.7101 -255.682 -16.7101 -246.912C-16.7101 -238.143 -17.4294 -132.255 -16.7101 -94.0467C-16.1829 -66.2018 -12.5153 17.2643 -12.5153 17.2643C-12.5153 17.2643 -10.992 42.8036 2.7315 56.9113C16.455 71.0145 147.212 183.089 147.212 183.089C147.212 183.089 156.741 190.715 156.741 198.72V453.748H218.876V230.742H185.711V196.049C185.711 196.049 189.142 181.182 174.659 164.791C160.172 148.401 54.1945 24.5057 54.1945 24.5057C54.1945 24.5057 52.2915 21.8387 52.2915 12.3101C52.2915 2.77685 56.2358 -70.5842 56.866 -98.2415C57.7145 -135.878 56.866 -248.82 56.866 -248.82C56.866 -248.82 59.9126 -282.744 35.1372 -307.524C10.3572 -332.304 -114.298 -458.103 -114.298 -458.103Z" fill="#FF5C39" stroke="black" stroke-width="4.75" stroke-miterlimit="10" stroke-linejoin="round"/>
<path d="M-114.682 1083.5L220.784 749.946L268.052 797.594H362.593V735.459H297.022L219.64 658.836V522.112H155.977V682.852L168.177 695.052L-113.918 977.143L-114.682 1083.5Z" fill="#FF5C39" stroke="black" stroke-width="4.75" stroke-miterlimit="10" stroke-linejoin="round"/>
</g>
<g opacity="0.5">
<path d="M-106.551 -816.161V-712.855L155.718 -447.151V8.77031C155.718 8.77031 156.102 34.6939 167.539 52.6121C178.975 70.5258 246.828 174.98 246.828 174.98C246.828 174.98 251.023 180.698 251.403 189.847C251.782 198.996 251.403 234.859 251.403 234.859H239.966V310.686H299.815V234.859H287.999L289.906 177.647C289.906 177.647 289.142 166.21 285.711 158.585C282.28 150.964 234.248 22.4938 234.248 22.4938C234.248 22.4938 230.818 16.0163 231.197 2.67248C231.581 -10.6713 231.197 -447.151 231.197 -447.151C231.197 -447.151 234.248 -476.125 212.14 -498.234C190.027 -520.342 -106.551 -816.161 -106.551 -816.161Z" fill="white"/>
<path d="M-106.551 -816.161V-712.855L155.718 -447.15V8.7704C155.718 8.7704 156.102 34.6939 167.539 52.6122C178.975 70.5259 246.828 174.98 246.828 174.98C246.828 174.98 251.023 180.698 251.403 189.847C251.782 198.996 251.403 234.859 251.403 234.859H239.966V310.687H299.815V234.859H287.999L289.906 177.647C289.906 177.647 289.142 166.211 285.711 158.585C282.28 150.964 234.248 22.4939 234.248 22.4939C234.248 22.4939 230.818 16.0164 231.197 2.67257C231.581 -10.6712 231.197 -447.15 231.197 -447.15C231.197 -447.15 234.248 -476.125 212.14 -498.234C190.027 -520.342 -106.551 -816.161 -106.551 -816.161Z" fill="#8DC8E8" stroke="black" stroke-width="4.75" stroke-miterlimit="10" stroke-linejoin="round"/>
<path d="M-107.694 400.653V473.59L89.7724 506.879C89.7724 506.879 98.9214 509.166 114.932 508.662C130.943 508.153 228.025 507.134 228.025 507.134V469.015L115.441 467.492C115.441 467.492 109.088 468.506 91.2957 462.662C73.5067 456.815 -107.694 400.653 -107.694 400.653Z" fill="white"/>
<path d="M-107.694 400.653V473.59L89.7724 506.879C89.7724 506.879 98.9214 509.167 114.932 508.662C130.943 508.153 228.025 507.134 228.025 507.134V469.015L115.441 467.492C115.441 467.492 109.088 468.506 91.2957 462.662C73.5067 456.815 -107.694 400.653 -107.694 400.653Z" fill="#8DC8E8" stroke="black" stroke-width="4.75" stroke-miterlimit="10" stroke-linejoin="round"/>
<path d="M276.91 1342.05H380.787L419.863 1304.69C419.863 1304.69 441.212 1287.72 441.591 1247.31C441.971 1206.91 441.591 1036.89 441.591 1036.89L423.293 791.771L423.485 743.739C423.485 743.739 424.817 734.59 414.908 734.59H392.987C392.987 734.59 384.218 733.067 384.218 745.075V791.579L366.112 1033.84V1246.17C366.112 1246.17 367.064 1251.51 357.155 1261.04C347.242 1270.57 276.91 1342.05 276.91 1342.05Z" fill="white"/>
<path d="M276.91 1342.05H380.787L419.863 1304.69C419.863 1304.69 441.212 1287.72 441.591 1247.31C441.971 1206.91 441.591 1036.89 441.591 1036.89L423.293 791.772L423.485 743.74C423.485 743.74 424.817 734.591 414.908 734.591H392.987C392.987 734.591 384.218 733.067 384.218 745.075V791.58L366.112 1033.84V1246.17C366.112 1246.17 367.064 1251.51 357.155 1261.04C347.242 1270.57 276.91 1342.05 276.91 1342.05Z" fill="#B9DCD2" stroke="black" stroke-width="4.75" stroke-miterlimit="10" stroke-linejoin="round"/>
<path d="M-83.5489 -1079.19H14.0432C14.0432 -1079.19 114.606 -962.183 155.468 -919.467C215.531 -856.684 417.742 -657.197 417.742 -657.197C417.742 -657.197 445.189 -632.038 445.189 -601.16V458.213C445.189 458.213 445.791 507.009 433.752 524.164C418.769 545.508 387.623 579.058 387.623 579.058C387.623 579.058 358.653 614.13 334.257 614.13H302.236V633.951H241.24V559.996H301.092V577.914H315.959C315.959 577.914 332.35 581.345 341.119 563.047C349.884 544.749 372.756 498.624 372.756 498.624C372.756 498.624 370.089 493.286 370.089 457.07V-599.252C370.089 -599.252 145.546 -820.351 86.0914 -883.255C32.1399 -940.333 -83.5489 -1079.19 -83.5489 -1079.19Z" fill="white"/>
<path d="M-83.5489 -1079.19H14.0432C14.0432 -1079.19 114.606 -962.183 155.468 -919.466C215.531 -856.684 417.742 -657.197 417.742 -657.197C417.742 -657.197 445.189 -632.038 445.189 -601.16V458.214C445.189 458.214 445.791 507.01 433.752 524.164C418.769 545.509 387.623 579.058 387.623 579.058C387.623 579.058 358.653 614.13 334.257 614.13H302.236V633.952H241.24V559.996H301.092V577.914H315.959C315.959 577.914 332.35 581.345 341.119 563.047C349.884 544.749 372.756 498.625 372.756 498.625C372.756 498.625 370.089 493.286 370.089 457.07V-599.252C370.089 -599.252 145.546 -820.351 86.0914 -883.255C32.1399 -940.333 -83.5489 -1079.19 -83.5489 -1079.19Z" fill="#8DC8E8" stroke="black" stroke-width="4.75" stroke-miterlimit="10" stroke-linejoin="round"/>
</g>
<path d="M211 360L241 360" stroke="black" stroke-width="5"/>
<path d="M719.019 761.382V713.35" stroke="black" stroke-width="5"/>
<path d="M230.693 715.637L276.437 681.329" stroke="black" stroke-width="5"/>
<path d="M585.423 161.783L568.626 222H558.968L547.084 179.084C546.832 178.132 546.622 177.138 546.454 176.103C546.286 175.039 546.174 173.947 546.118 172.827H545.95C545.866 173.947 545.726 175.025 545.53 176.061C545.362 177.068 545.138 178.062 544.858 179.042L532.849 222H523.106L505.848 161.783H515.086L526.97 206.715C527.25 207.639 527.46 208.618 527.6 209.654C527.768 210.69 527.88 211.782 527.936 212.93H528.146C528.229 212.118 528.369 211.194 528.565 210.158C528.789 209.094 529.083 207.933 529.447 206.673L542.255 161.783H550.611L562.789 207.051C563.013 207.835 563.209 208.716 563.377 209.696C563.545 210.648 563.685 211.698 563.797 212.846H563.965C564.021 212.034 564.133 211.138 564.301 210.158C564.497 209.15 564.749 208.059 565.057 206.883L576.521 161.783H585.423ZM606.207 200.416V222H597.809V161.783H615.32C621.982 161.783 627.105 163.393 630.689 166.612C634.3 169.804 636.106 174.395 636.106 180.386C636.106 186.265 634.09 191.08 630.059 194.831C626.056 198.554 620.653 200.416 613.85 200.416H606.207ZM606.207 169.006V193.193H613.178C617.769 193.193 621.269 192.13 623.676 190.002C626.084 187.846 627.287 184.767 627.287 180.764C627.287 176.844 626.168 173.905 623.928 171.945C621.688 169.986 618.329 169.006 613.85 169.006H606.207ZM666.422 222H658.234V171.609C657.086 172.533 655.266 173.583 652.775 174.759C650.311 175.907 648.03 176.76 645.93 177.32L643.621 170.35C646.98 169.454 650.451 168.082 654.035 166.234C657.618 164.359 660.502 162.427 662.685 160.439H666.422V222Z" fill="black"/>
<path d="M281.174 392.008C272.663 392.008 265.791 389.208 260.556 383.609C255.321 378.01 252.703 370.676 252.703 361.605C252.703 351.919 255.363 344.193 260.682 338.426C266.029 332.659 273.195 329.775 282.182 329.775C290.524 329.775 297.215 332.575 302.254 338.174C307.321 343.773 309.854 351.121 309.854 360.22C309.854 366.071 308.889 371.264 306.957 375.799C305.025 380.306 302.282 383.861 298.727 386.465L310.232 394.947L304.689 401.456L291.252 390.622C289.768 391.042 288.145 391.378 286.381 391.63C284.645 391.882 282.91 392.008 281.174 392.008ZM281.678 337.25C275.687 337.25 270.83 339.434 267.106 343.801C263.383 348.14 261.521 353.865 261.521 360.976C261.521 368.03 263.327 373.727 266.938 378.066C270.578 382.406 275.337 384.575 281.216 384.575C287.431 384.575 292.288 382.518 295.787 378.402C299.286 374.259 301.036 368.506 301.036 361.144C301.036 353.529 299.342 347.65 295.955 343.507C292.568 339.336 287.809 337.25 281.678 337.25ZM325.096 391V330.783H342.691C353.329 330.783 361.293 333.233 366.584 338.132C371.903 343.003 374.563 350.338 374.563 360.136C374.563 369.458 371.623 376.933 365.744 382.56C359.866 388.187 351.999 391 342.145 391H325.096ZM333.494 338.132V383.651H342.019C349.493 383.651 355.316 381.622 359.488 377.562C363.659 373.475 365.744 367.722 365.744 360.304C365.744 352.997 363.771 347.482 359.824 343.759C355.904 340.007 350.067 338.132 342.313 338.132H333.494ZM405.551 391H397.363V340.609C396.215 341.533 394.395 342.583 391.904 343.759C389.44 344.907 387.159 345.76 385.059 346.32L382.75 339.35C386.109 338.454 389.58 337.082 393.164 335.234C396.747 333.359 399.63 331.427 401.814 329.439H405.551V391Z" fill="black"/>
<path d="M323.174 700.008C314.663 700.008 307.791 697.208 302.556 691.609C297.321 686.01 294.703 678.676 294.703 669.605C294.703 659.919 297.363 652.193 302.682 646.426C308.029 640.659 315.195 637.775 324.182 637.775C332.524 637.775 339.215 640.575 344.254 646.174C349.321 651.773 351.854 659.121 351.854 668.22C351.854 674.071 350.889 679.264 348.957 683.799C347.025 688.306 344.282 691.861 340.727 694.465L352.232 702.947L346.689 709.456L333.252 698.622C331.768 699.042 330.145 699.378 328.381 699.63C326.645 699.882 324.91 700.008 323.174 700.008ZM323.678 645.25C317.687 645.25 312.83 647.434 309.106 651.801C305.383 656.14 303.521 661.865 303.521 668.976C303.521 676.03 305.327 681.727 308.938 686.066C312.578 690.406 317.337 692.575 323.216 692.575C329.431 692.575 334.288 690.518 337.787 686.402C341.286 682.259 343.036 676.506 343.036 669.144C343.036 661.529 341.342 655.65 337.955 651.507C334.568 647.336 329.809 645.25 323.678 645.25ZM367.096 699V638.783H384.691C395.329 638.783 403.293 641.233 408.584 646.132C413.903 651.003 416.563 658.338 416.563 668.136C416.563 677.458 413.623 684.933 407.744 690.56C401.866 696.187 393.999 699 384.145 699H367.096ZM375.494 646.132V691.651H384.019C391.493 691.651 397.316 689.622 401.488 685.562C405.659 681.475 407.744 675.722 407.744 668.304C407.744 660.997 405.771 655.482 401.824 651.759C397.904 648.007 392.067 646.132 384.313 646.132H375.494ZM428.403 694.843L432.224 689.006C434.352 690.462 436.493 691.539 438.649 692.239C440.805 692.939 443.072 693.289 445.452 693.289C449.679 693.289 452.842 692.281 454.942 690.266C457.042 688.25 458.091 685.716 458.091 682.665C458.091 678.802 456.734 675.946 454.018 674.099C451.331 672.223 447.341 671.285 442.05 671.285H437.053V664.566H441.756C446.488 664.566 450.043 663.699 452.422 661.963C454.802 660.227 455.992 657.484 455.992 653.732C455.992 650.737 455.082 648.455 453.262 646.888C451.471 645.292 449.259 644.494 446.628 644.494C444.444 644.494 442.316 644.858 440.245 645.586C438.201 646.314 436.157 647.434 434.114 648.945L430.125 643.444C432.7 641.541 435.388 640.127 438.187 639.203C440.987 638.251 444.024 637.775 447.299 637.775C452.45 637.775 456.58 639.119 459.687 641.807C462.822 644.494 464.39 648.119 464.39 652.683C464.39 656.294 463.41 659.373 461.451 661.921C459.519 664.468 456.608 666.302 452.716 667.422V667.632C456.72 668.108 460.009 669.633 462.585 672.209C465.188 674.757 466.49 678.074 466.49 682.161C466.49 687.648 464.614 692.015 460.863 695.263C457.14 698.482 452.24 700.092 446.166 700.092C442.694 700.092 439.545 699.672 436.717 698.832C433.89 697.964 431.118 696.634 428.403 694.843Z" fill="black"/>
<path d="M702.174 698.008C693.663 698.008 686.791 695.208 681.556 689.609C676.321 684.01 673.703 676.676 673.703 667.605C673.703 657.919 676.363 650.193 681.682 644.426C687.029 638.659 694.195 635.775 703.182 635.775C711.524 635.775 718.215 638.575 723.254 644.174C728.321 649.773 730.854 657.121 730.854 666.22C730.854 672.071 729.889 677.264 727.957 681.799C726.025 686.306 723.282 689.861 719.727 692.465L731.232 700.947L725.689 707.456L712.252 696.622C710.768 697.042 709.145 697.378 707.381 697.63C705.645 697.882 703.91 698.008 702.174 698.008ZM702.678 643.25C696.687 643.25 691.83 645.434 688.106 649.801C684.383 654.14 682.521 659.865 682.521 666.976C682.521 674.03 684.327 679.727 687.938 684.066C691.578 688.406 696.337 690.575 702.216 690.575C708.431 690.575 713.288 688.518 716.787 684.402C720.286 680.259 722.036 674.506 722.036 667.144C722.036 659.529 720.342 653.65 716.955 649.507C713.568 645.336 708.809 643.25 702.678 643.25ZM746.096 697V636.783H763.691C774.329 636.783 782.293 639.233 787.584 644.132C792.903 649.003 795.563 656.338 795.563 666.136C795.563 675.458 792.623 682.933 786.744 688.56C780.866 694.187 772.999 697 763.145 697H746.096ZM754.494 644.132V689.651H763.019C770.493 689.651 776.316 687.622 780.488 683.562C784.659 679.475 786.744 673.722 786.744 666.304C786.744 658.997 784.771 653.482 780.824 649.759C776.904 646.007 771.067 644.132 763.313 644.132H754.494ZM842.844 697H810.636V636.783H819.035V689.651H842.844V697Z" fill="black"/>
<path d="M495.173 454.187V444.812H494.563C485.782 444.812 478.985 442.328 474.173 437.359C469.391 432.39 467.001 425.984 467.001 418.14C467.001 410.453 469.391 404.265 474.173 399.578C478.985 394.89 485.782 392.546 494.563 392.546H495.173V385.562H503.891V392.546H504.501C513.313 392.546 520.095 394.906 524.845 399.625C529.595 404.312 531.97 410.468 531.97 418.093C531.97 425.968 529.548 432.39 524.704 437.359C519.891 442.328 513.141 444.812 504.454 444.812H503.891V454.187H495.173ZM495.173 436.843V400.187H494.657C488.626 400.187 484.032 401.828 480.876 405.109C477.751 408.359 476.188 412.75 476.188 418.281C476.188 424.093 477.704 428.64 480.735 431.921C483.798 435.203 488.438 436.843 494.657 436.843H495.173ZM503.891 436.843H504.454C510.61 436.843 515.204 435.203 518.235 431.921C521.298 428.609 522.829 424.046 522.829 418.234C522.829 412.734 521.282 408.359 518.188 405.109C515.095 401.828 510.516 400.187 504.454 400.187H503.891V436.843Z" fill="black"/>
<path d="M192.652 434.888V269.966L799.373 272.707V440.795V593.791L192.651 593.792L192.652 434.888Z" stroke="black" stroke-width="12" stroke-dasharray="16 16"/>
</g>
</svg>
