<svg width="2576" height="900" viewBox="0 0 2576 900" fill="none" xmlns="http://www.w3.org/2000/svg">
<rect width="2576" height="900" fill="white"/>
<mask id="mask0_91_169" style="mask-type:alpha" maskUnits="userSpaceOnUse" x="46" y="58" width="2484" height="737">
<rect x="46" y="58" width="2484" height="737" fill="#D9D9D9"/>
</mask>
<g mask="url(#mask0_91_169)">
<path opacity="0.5" d="M2317.81 -279.131V-313.898H1391.81V-2011.98H1677.81C1792.89 -2011.98 1780.78 -2103.47 1780.78 -2103.47V-2459.07H980.619V-2101.04C980.619 -2008.93 1074.84 -2011.98 1074.84 -2011.98H1370.94V-313.29H446.277V-279.131H1370.27V204.552H446.277V239.319H2317.81V203.944H1391.81V-279.131H2317.81Z" fill="#225B62" stroke="black" stroke-width="4.75" stroke-miterlimit="10" stroke-linejoin="round"/>
<g opacity="0.5">
<path d="M1297.03 1421.65H1477.83V654.333H1965.96V530.313H799.705V653.925H1296.36V1421.65H1297.03Z" fill="#B9DCD2" stroke="black" stroke-width="4.75" stroke-miterlimit="10" stroke-linejoin="round"/>
<path d="M762.379 651.997H204.488L-221.842 1038.4V799.606L-209.058 787.097V651.997H-221.842V392.468H-175.746L187.327 280.541H271.443V353.734L463.919 530.313H762.379V651.997Z" fill="#B9DCD2" stroke="black" stroke-width="4.75" stroke-miterlimit="10" stroke-linejoin="round"/>
<path d="M272.011 168.007H189.905L-175.298 52.9346H-221.842V-126.797H-177.987L192.144 -239.438H272.011V168.007Z" fill="#B9DCD2" stroke="black" stroke-width="4.75" stroke-miterlimit="10" stroke-linejoin="round"/>
<path d="M1999.64 651.997H2557.53L2983.86 1038.4V799.606L2971.07 787.097V651.997H2983.86V392.468H2937.76L2574.69 280.541H2490.57V353.734L2298.1 530.313H1999.64V651.997Z" fill="#B9DCD2" stroke="black" stroke-width="4.75" stroke-miterlimit="10" stroke-linejoin="round"/>
<path d="M2490.01 168.007H2572.11L2937.31 52.9346H2983.86V-126.797H2940L2569.87 -239.438H2490.01V168.007Z" fill="#BAB5C6" stroke="black" stroke-width="4.75" stroke-miterlimit="10" stroke-linejoin="round"/>
</g>
<g opacity="0.5">
<path d="M-233.421 341.557H-200.226L181.577 252.097V199.639L-202.016 103.273H-233.421V341.557Z" fill="#FF5C39" stroke="black" stroke-width="4.75" stroke-miterlimit="10" stroke-linejoin="round"/>
<path d="M2984.28 161.501V281.613H2901.5L2639.05 259.041V291.978H2530.69V152.303H2637.7V186.462L2912.27 161.501H2984.28Z" fill="#97DDBD" stroke="black" stroke-width="4.75" stroke-miterlimit="10" stroke-linejoin="round"/>
<path d="M-220.708 161.501V281.613H-137.932L124.527 259.041V291.978H232.878V152.303H125.875V186.462L-148.697 161.501H-220.708Z" fill="#97DDBD" stroke="black" stroke-width="4.75" stroke-miterlimit="10" stroke-linejoin="round"/>
<path d="M2409.61 187.019V-22.2955H349.651V187.019H418.634L464.84 211.414C464.84 211.414 483.909 224.223 465.519 233.78C447.118 243.337 417.065 259.605 417.065 259.605H349.651V323.442L498.492 459.664H2265.26L2408.44 329.896V260.212H2348.21L2296.39 233.829C2296.39 233.829 2278.56 221.936 2297.06 212.636C2315.57 203.337 2348.04 187.019 2348.04 187.019H2409.61Z" fill="#B9DCD2" stroke="black" stroke-width="4.75" stroke-miterlimit="10" stroke-linejoin="round"/>
<path d="M1768.73 41.5473H1849.49V163.125H1451.08V41.5473H1635.92V-1946.06C1635.92 -1946.06 1634.13 -1992.82 1665.09 -2031.86C1696.05 -2070.89 2016.83 -2458.41 2016.83 -2458.41H2180.14L1768.73 -1957.44V41.5473Z" fill="#B9DCD2" stroke="black" stroke-width="4.75" stroke-miterlimit="10" stroke-linejoin="round"/>
<path d="M1441.21 31.3839H1867.87V177.362H1441.21V31.3839Z" fill="#B9DCD2" stroke="black" stroke-width="4.75" stroke-miterlimit="10" stroke-linejoin="round"/>
</g>
<g opacity="0.5">
<path d="M857.463 -2459.92H1026.38L1401.9 -2037.22C1401.9 -2037.22 1434.87 -2005.51 1434.87 -1954.27V-339.755C1434.87 -339.755 1440.26 -275.096 1402.57 -240.944C1364.88 -206.785 1115.88 4.25305 1115.88 4.25305V444.635H2009.59V544.053H727.582V444.635H981.965V12.1871C981.965 12.1871 976.579 -39.663 1036.48 -91.5058C1096.36 -143.349 1292.2 -307.426 1292.2 -307.426C1292.2 -307.426 1302.29 -311.086 1302.97 -333.651C1303.64 -356.224 1302.97 -1939.64 1302.97 -1939.64C1302.97 -1939.64 1307.68 -1956.71 1290.86 -1973.79C1274.03 -1990.87 857.463 -2459.92 857.463 -2459.92Z" fill="#D44D30"/>
<path d="M857.463 -2459.92H1026.38L1401.9 -2037.23C1401.9 -2037.23 1434.87 -2005.51 1434.87 -1954.28V-339.756C1434.87 -339.756 1440.26 -275.097 1402.57 -240.946C1364.88 -206.786 1115.88 4.25192 1115.88 4.25192V444.634H2009.59V544.052H727.582V444.634H981.965V12.186C981.965 12.186 976.579 -39.6641 1036.48 -91.5069C1096.36 -143.35 1292.2 -307.427 1292.2 -307.427C1292.2 -307.427 1302.29 -311.087 1302.97 -333.652C1303.64 -356.225 1302.97 -1939.64 1302.97 -1939.64C1302.97 -1939.64 1307.68 -1956.71 1290.86 -1973.79C1274.03 -1990.87 857.463 -2459.92 857.463 -2459.92Z" stroke="black" stroke-width="4.75" stroke-miterlimit="10" stroke-linejoin="round"/>
<path d="M-234.098 1001.51L358.122 467.813L441.568 544.051H608.467V444.633H492.711L356.103 322.034V103.271H243.714V360.461L265.252 379.981L-232.75 831.335L-234.098 1001.51Z" fill="#D44D30" stroke="black" stroke-width="4.75" stroke-miterlimit="10" stroke-linejoin="round"/>
<path d="M2973.29 1001.51L2381.07 467.813L2297.62 544.051H2130.73V444.633H2246.48L2383.09 322.034V103.271H2495.47V360.461L2473.94 379.981L2971.94 831.335L2973.29 1001.51Z" fill="#D44D30" stroke="black" stroke-width="4.75" stroke-miterlimit="10" stroke-linejoin="round"/>
</g>
<g opacity="0.5">
<path d="M2950.01 -2460.04C2950.01 -2460.04 2761.63 -2257.16 2663.33 -2162.59C2561.95 -2065.08 2147.15 -1693.95 2147.15 -1693.95V-27.1726C2147.15 -4.10026 2137.51 69.5998 2137.51 69.5998C2137.51 69.5998 2179.82 154.766 2193.14 172.887C2212.89 199.727 2264.98 195.201 2264.98 195.201L2264.93 160.277L2369.24 160.892L2371.25 282.876H2262.23L2262.91 252.384C2262.91 252.384 2196.29 261.533 2152.54 232.255C2114.09 206.517 2014.58 102.337 2014.58 65.7407C2014.58 29.1441 2010.55 -1668.33 2010.55 -1668.33C2010.55 -1668.33 2003.14 -1732.98 2052.27 -1777.51C2101.4 -1822.04 2318.76 -2017.83 2318.76 -2017.83C2318.76 -2017.83 2524.72 -2206.95 2582.12 -2262.82C2638.29 -2317.5 2773.02 -2460.04 2773.02 -2460.04H2950.01Z" fill="#8DC8E8" stroke="black" stroke-width="4.75" stroke-miterlimit="10" stroke-linejoin="round"/>
<path d="M2986.86 -91.0669V25.6342L2638.26 78.8988C2638.26 78.8988 2622.11 82.5584 2593.84 81.7515C2565.58 80.9372 2394.2 79.3069 2394.2 79.3069V18.3149L2592.95 15.8775C2592.95 15.8775 2604.16 17.5005 2635.57 8.1501C2666.97 -1.20583 2986.86 -91.0669 2986.86 -91.0669Z" fill="#8DC8E8"/>
<path d="M2986.86 -91.0664V25.6347L2638.26 78.8993C2638.26 78.8993 2622.11 82.5589 2593.84 81.7519C2565.58 80.9377 2394.2 79.3074 2394.2 79.3074V18.3154L2592.95 15.878C2592.95 15.878 2604.16 17.501 2635.57 8.15059C2666.97 -1.20534 2986.86 -91.0664 2986.86 -91.0664Z" fill="#B9DCD2" stroke="black" stroke-width="4.75" stroke-miterlimit="10" stroke-linejoin="round"/>
<path d="M-221.763 -91.0669V25.6342L126.838 78.8988C126.838 78.8988 142.99 82.5584 171.255 81.7515C199.519 80.9372 370.905 79.3069 370.905 79.3069V18.3149L172.153 15.8775C172.153 15.8775 160.938 17.5005 129.528 8.1501C98.1234 -1.20583 -221.763 -91.0669 -221.763 -91.0669Z" fill="#8DC8E8"/>
<path d="M-221.763 -91.0664V25.6347L126.838 78.8993C126.838 78.8993 142.99 82.5589 171.255 81.7519C199.519 80.9377 370.905 79.3074 370.905 79.3074V18.3154L172.153 15.878C172.153 15.878 160.938 17.501 129.528 8.15059C98.1234 -1.20534 -221.763 -91.0664 -221.763 -91.0664Z" fill="#B9DCD2" stroke="black" stroke-width="4.75" stroke-miterlimit="10" stroke-linejoin="round"/>
<path d="M2306.15 1415.19H2122.76L2053.78 1355.42C2053.78 1355.42 2016.1 1328.28 2015.42 1263.62C2014.75 1198.97 2015.42 926.928 2015.42 926.928L2047.73 534.736L2047.39 457.883C2047.39 457.883 2045.04 443.245 2062.54 443.245H2101.23C2101.23 443.245 2116.71 440.807 2116.71 460.021V534.429L2148.67 922.053V1261.79C2148.67 1261.79 2146.99 1270.33 2164.49 1285.57C2181.98 1300.83 2306.15 1415.19 2306.15 1415.19Z" fill="white"/>
<path d="M2306.15 1415.19H2122.76L2053.78 1355.41C2053.78 1355.41 2016.1 1328.27 2015.42 1263.62C2014.75 1198.96 2015.42 926.926 2015.42 926.926L2047.73 534.735L2047.39 457.882C2047.39 457.882 2045.04 443.243 2062.54 443.243H2101.23C2101.23 443.243 2116.71 440.806 2116.71 460.019V534.428L2148.67 922.052V1261.79C2148.67 1261.79 2146.99 1270.33 2164.49 1285.57C2181.98 1300.83 2306.15 1415.19 2306.15 1415.19Z" fill="#8DC8E8" stroke="black" stroke-width="4.75" stroke-miterlimit="10" stroke-linejoin="round"/>
<path d="M457.205 1415.19H640.587L709.569 1355.42C709.569 1355.42 747.258 1328.28 747.928 1263.62C748.599 1198.97 747.928 926.928 747.928 926.928L715.626 534.736L715.965 457.883C715.965 457.883 718.315 443.245 700.823 443.245H662.124C662.124 443.245 646.643 440.807 646.643 460.021V534.429L614.68 922.053V1261.79C614.68 1261.79 616.36 1270.33 598.868 1285.57C581.368 1300.83 457.205 1415.19 457.205 1415.19Z" fill="white"/>
<path d="M457.205 1415.19H640.587L709.569 1355.41C709.569 1355.41 747.258 1328.27 747.928 1263.62C748.599 1198.96 747.928 926.926 747.928 926.926L715.626 534.735L715.965 457.882C715.965 457.882 718.315 443.243 700.823 443.243H662.124C662.124 443.243 646.643 440.806 646.643 460.019V534.428L614.68 922.052V1261.79C614.68 1261.79 616.36 1270.33 598.868 1285.57C581.368 1300.83 457.205 1415.19 457.205 1415.19Z" fill="#8DC8E8" stroke="black" stroke-width="4.75" stroke-miterlimit="10" stroke-linejoin="round"/>
<path d="M-179.137 -2458.87H-6.85102C-6.85102 -2458.87 170.68 -2271.65 242.816 -2203.3C348.849 -2102.84 705.826 -1783.66 705.826 -1783.66C705.826 -1783.66 754.28 -1743.4 754.28 -1694V1.03498C754.28 1.03498 755.344 79.1102 734.091 106.558C707.639 140.71 652.656 194.39 652.656 194.39C652.656 194.39 601.513 250.507 558.445 250.507H501.915V282.221H394.235V163.89H499.897V192.56H526.142C526.142 192.56 555.078 198.049 570.559 168.772C586.032 139.495 626.41 65.6938 626.41 65.6938C626.41 65.6938 621.702 57.1523 621.702 -0.794849V-1690.94C621.702 -1690.94 225.3 -2044.71 120.341 -2145.36C25.0963 -2236.68 -179.137 -2458.87 -179.137 -2458.87Z" fill="white"/>
<path d="M-179.138 -2458.87H-6.85144C-6.85144 -2458.87 170.68 -2271.65 242.816 -2203.3C348.849 -2102.85 705.825 -1783.66 705.825 -1783.66C705.825 -1783.66 754.279 -1743.4 754.279 -1694V1.03273C754.279 1.03273 755.343 79.1079 734.09 106.555C707.638 140.707 652.655 194.387 652.655 194.387C652.655 194.387 601.512 250.505 558.445 250.505H501.915V282.219H394.234V163.888H499.896V192.557H526.142C526.142 192.557 555.077 198.047 570.558 168.77C586.031 139.492 626.409 65.6916 626.409 65.6916C626.409 65.6916 621.701 57.15 621.701 -0.797098V-1690.95C621.701 -1690.95 225.299 -2044.71 120.34 -2145.36C25.0959 -2236.69 -179.138 -2458.87 -179.138 -2458.87Z" fill="#8DC8E8" stroke="black" stroke-width="4.75" stroke-miterlimit="10" stroke-linejoin="round"/>
</g>
<path d="M1262 470L1262 398" stroke="black" stroke-width="5"/>
<path d="M433 412L482 363" stroke="black" stroke-width="5"/>
<path d="M2298.5 412.5L2242 364.134" stroke="black" stroke-width="5"/>
<path d="M308 340.479V219L2452 226.532L2448.17 340.479L2266 501.737L496.553 509L308 340.479Z" stroke="black" stroke-width="16" stroke-dasharray="12 12"/>
<path d="M1732.1 275.582L1714.13 340H1703.8L1691.09 294.09C1690.82 293.072 1690.6 292.008 1690.42 290.9C1690.24 289.762 1690.12 288.594 1690.06 287.396H1689.88C1689.79 288.594 1689.64 289.747 1689.43 290.855C1689.25 291.934 1689.01 292.997 1688.71 294.045L1675.86 340H1665.44L1646.98 275.582H1656.86L1669.57 323.648C1669.87 324.637 1670.1 325.685 1670.25 326.793C1670.43 327.901 1670.55 329.069 1670.61 330.297H1670.83C1670.92 329.428 1671.07 328.44 1671.28 327.332C1671.52 326.194 1671.83 324.951 1672.22 323.604L1685.92 275.582H1694.86L1707.89 324.008C1708.13 324.846 1708.34 325.79 1708.52 326.838C1708.7 327.856 1708.85 328.979 1708.97 330.207H1709.15C1709.21 329.339 1709.33 328.38 1709.51 327.332C1709.72 326.254 1709.99 325.086 1710.32 323.828L1722.58 275.582H1732.1ZM1757.1 316.91V340H1748.11V275.582H1766.85C1773.97 275.582 1779.45 277.304 1783.29 280.748C1787.15 284.162 1789.08 289.074 1789.08 295.482C1789.08 301.771 1786.93 306.923 1782.61 310.936C1778.33 314.919 1772.55 316.91 1765.27 316.91H1757.1ZM1757.1 283.309V309.184H1764.55C1769.47 309.184 1773.21 308.046 1775.79 305.77C1778.36 303.464 1779.65 300.169 1779.65 295.887C1779.65 291.694 1778.45 288.549 1776.05 286.453C1773.66 284.357 1770.07 283.309 1765.27 283.309H1757.1ZM1804.64 340V336.451C1804.64 333.606 1804.99 331.076 1805.68 328.859C1806.4 326.643 1807.47 324.577 1808.91 322.66C1810.35 320.743 1812.16 318.872 1814.35 317.045C1816.53 315.218 1819.09 313.227 1822.03 311.07C1824.27 309.483 1826.16 307.956 1827.69 306.488C1829.22 305.021 1830.47 303.568 1831.46 302.131C1832.36 300.873 1833.03 299.451 1833.48 297.863C1833.96 296.276 1834.2 294.614 1834.2 292.877C1834.2 289.613 1833.24 286.947 1831.33 284.881C1829.44 282.814 1826.8 281.781 1823.42 281.781C1820.73 281.781 1818.12 282.365 1815.6 283.533C1813.09 284.701 1810.74 286.423 1808.55 288.699L1803.25 283.578C1806.22 280.493 1809.4 278.217 1812.82 276.75C1816.26 275.253 1820.07 274.504 1824.23 274.504C1830.28 274.504 1834.94 276.256 1838.2 279.76C1841.46 283.234 1843.1 287.307 1843.1 291.979C1843.1 294.644 1842.74 297.085 1842.02 299.301C1841.33 301.517 1840.37 303.493 1839.14 305.23C1837.89 307.087 1836.36 308.854 1834.56 310.531C1832.76 312.208 1830.7 313.9 1828.36 315.607C1825.67 317.494 1823.41 319.141 1821.58 320.549C1819.75 321.926 1818.28 323.229 1817.18 324.457C1816.04 325.715 1815.21 326.958 1814.71 328.186C1814.2 329.413 1813.94 330.791 1813.94 332.318H1845.03V340H1804.64Z" fill="black"/>
<path d="M526.031 391.125C516.531 391.125 508.859 388 503.016 381.75C497.172 375.5 494.25 367.312 494.25 357.188C494.25 346.375 497.219 337.75 503.156 331.312C509.125 324.875 517.125 321.656 527.156 321.656C536.469 321.656 543.938 324.781 549.562 331.031C555.219 337.281 558.047 345.484 558.047 355.641C558.047 362.172 556.969 367.969 554.812 373.031C552.656 378.062 549.594 382.031 545.625 384.938L558.469 394.406L552.281 401.672L537.281 389.578C535.625 390.047 533.812 390.422 531.844 390.703C529.906 390.984 527.969 391.125 526.031 391.125ZM526.594 330C519.906 330 514.484 332.438 510.328 337.312C506.172 342.156 504.094 348.547 504.094 356.484C504.094 364.359 506.109 370.719 510.141 375.562C514.203 380.406 519.516 382.828 526.078 382.828C533.016 382.828 538.438 380.531 542.344 375.938C546.25 371.312 548.203 364.891 548.203 356.672C548.203 348.172 546.312 341.609 542.531 336.984C538.75 332.328 533.438 330 526.594 330ZM577.941 390V322.781H597.581C609.456 322.781 618.347 325.516 624.253 330.984C630.191 336.422 633.159 344.609 633.159 355.547C633.159 365.953 629.878 374.297 623.316 380.578C616.753 386.859 607.972 390 596.972 390H577.941ZM587.316 330.984V381.797H596.831C605.175 381.797 611.675 379.531 616.331 375C620.988 370.438 623.316 364.016 623.316 355.734C623.316 347.578 621.113 341.422 616.706 337.266C612.331 333.078 605.816 330.984 597.159 330.984H587.316ZM649.256 385.359L653.522 378.844C655.897 380.469 658.288 381.672 660.694 382.453C663.1 383.234 665.631 383.625 668.288 383.625C673.006 383.625 676.538 382.5 678.881 380.25C681.225 378 682.397 375.172 682.397 371.766C682.397 367.453 680.881 364.266 677.85 362.203C674.85 360.109 670.397 359.062 664.491 359.062H658.913V351.562H664.163C669.444 351.562 673.413 350.594 676.069 348.656C678.725 346.719 680.053 343.656 680.053 339.469C680.053 336.125 679.038 333.578 677.006 331.828C675.006 330.047 672.538 329.156 669.6 329.156C667.163 329.156 664.788 329.562 662.475 330.375C660.194 331.188 657.913 332.438 655.631 334.125L651.178 327.984C654.053 325.859 657.053 324.281 660.178 323.25C663.303 322.188 666.694 321.656 670.35 321.656C676.1 321.656 680.709 323.156 684.178 326.156C687.678 329.156 689.428 333.203 689.428 338.297C689.428 342.328 688.334 345.766 686.147 348.609C683.991 351.453 680.741 353.5 676.397 354.75V354.984C680.866 355.516 684.538 357.219 687.413 360.094C690.319 362.938 691.772 366.641 691.772 371.203C691.772 377.328 689.678 382.203 685.491 385.828C681.334 389.422 675.866 391.219 669.084 391.219C665.209 391.219 661.694 390.75 658.538 389.812C655.381 388.844 652.288 387.359 649.256 385.359Z" fill="black"/>
<path d="M2048.03 391.125C2038.53 391.125 2030.86 388 2025.02 381.75C2019.17 375.5 2016.25 367.312 2016.25 357.188C2016.25 346.375 2019.22 337.75 2025.16 331.312C2031.12 324.875 2039.12 321.656 2049.16 321.656C2058.47 321.656 2065.94 324.781 2071.56 331.031C2077.22 337.281 2080.05 345.484 2080.05 355.641C2080.05 362.172 2078.97 367.969 2076.81 373.031C2074.66 378.062 2071.59 382.031 2067.62 384.938L2080.47 394.406L2074.28 401.672L2059.28 389.578C2057.62 390.047 2055.81 390.422 2053.84 390.703C2051.91 390.984 2049.97 391.125 2048.03 391.125ZM2048.59 330C2041.91 330 2036.48 332.438 2032.33 337.312C2028.17 342.156 2026.09 348.547 2026.09 356.484C2026.09 364.359 2028.11 370.719 2032.14 375.562C2036.2 380.406 2041.52 382.828 2048.08 382.828C2055.02 382.828 2060.44 380.531 2064.34 375.938C2068.25 371.312 2070.2 364.891 2070.2 356.672C2070.2 348.172 2068.31 341.609 2064.53 336.984C2060.75 332.328 2055.44 330 2048.59 330ZM2099.94 390V322.781H2119.58C2131.46 322.781 2140.35 325.516 2146.25 330.984C2152.19 336.422 2155.16 344.609 2155.16 355.547C2155.16 365.953 2151.88 374.297 2145.32 380.578C2138.75 386.859 2129.97 390 2118.97 390H2099.94ZM2109.32 330.984V381.797H2118.83C2127.18 381.797 2133.68 379.531 2138.33 375C2142.99 370.438 2145.32 364.016 2145.32 355.734C2145.32 347.578 2143.11 341.422 2138.71 337.266C2134.33 333.078 2127.82 330.984 2119.16 330.984H2109.32ZM2208.8 322.312V366.938H2216.26V374.906H2208.8V390.516H2199.85V374.906H2168.77V367.125C2171.65 363.844 2174.55 360.328 2177.49 356.578C2180.46 352.828 2183.29 349.016 2185.98 345.141C2188.66 341.266 2191.15 337.391 2193.43 333.516C2195.74 329.609 2197.69 325.875 2199.29 322.312H2208.8ZM2178.38 366.938H2199.85V335.625C2197.73 339.344 2195.69 342.719 2193.76 345.75C2191.85 348.781 2190.01 351.547 2188.23 354.047C2186.44 356.609 2184.73 358.938 2183.07 361.031C2181.41 363.094 2179.85 365.062 2178.38 366.938Z" fill="black"/>
<path d="M1202.03 391.125C1192.53 391.125 1184.86 388 1179.02 381.75C1173.17 375.5 1170.25 367.312 1170.25 357.188C1170.25 346.375 1173.22 337.75 1179.16 331.312C1185.12 324.875 1193.12 321.656 1203.16 321.656C1212.47 321.656 1219.94 324.781 1225.56 331.031C1231.22 337.281 1234.05 345.484 1234.05 355.641C1234.05 362.172 1232.97 367.969 1230.81 373.031C1228.66 378.062 1225.59 382.031 1221.62 384.938L1234.47 394.406L1228.28 401.672L1213.28 389.578C1211.62 390.047 1209.81 390.422 1207.84 390.703C1205.91 390.984 1203.97 391.125 1202.03 391.125ZM1202.59 330C1195.91 330 1190.48 332.438 1186.33 337.312C1182.17 342.156 1180.09 348.547 1180.09 356.484C1180.09 364.359 1182.11 370.719 1186.14 375.562C1190.2 380.406 1195.52 382.828 1202.08 382.828C1209.02 382.828 1214.44 380.531 1218.34 375.938C1222.25 371.312 1224.2 364.891 1224.2 356.672C1224.2 348.172 1222.31 341.609 1218.53 336.984C1214.75 332.328 1209.44 330 1202.59 330ZM1253.94 390V322.781H1273.58C1285.46 322.781 1294.35 325.516 1300.25 330.984C1306.19 336.422 1309.16 344.609 1309.16 355.547C1309.16 365.953 1305.88 374.297 1299.32 380.578C1292.75 386.859 1283.97 390 1272.97 390H1253.94ZM1263.32 330.984V381.797H1272.83C1281.17 381.797 1287.67 379.531 1292.33 375C1296.99 370.438 1299.32 364.016 1299.32 355.734C1299.32 347.578 1297.11 341.422 1292.71 337.266C1288.33 333.078 1281.82 330.984 1273.16 330.984H1263.32ZM1364.82 390H1328.87V322.781H1338.24V381.797H1364.82V390Z" fill="black"/>
<path d="M1452.47 337.75V328.375H1451.86C1443.08 328.375 1436.28 325.891 1431.47 320.922C1426.69 315.953 1424.3 309.547 1424.3 301.703C1424.3 294.016 1426.69 287.828 1431.47 283.141C1436.28 278.453 1443.08 276.109 1451.86 276.109H1452.47V269.125H1461.19V276.109H1461.8C1470.61 276.109 1477.39 278.469 1482.14 283.188C1486.89 287.875 1489.27 294.031 1489.27 301.656C1489.27 309.531 1486.84 315.953 1482 320.922C1477.19 325.891 1470.44 328.375 1461.75 328.375H1461.19V337.75H1452.47ZM1452.47 320.406V283.75H1451.95C1445.92 283.75 1441.33 285.391 1438.17 288.672C1435.05 291.922 1433.48 296.312 1433.48 301.844C1433.48 307.656 1435 312.203 1438.03 315.484C1441.09 318.766 1445.73 320.406 1451.95 320.406H1452.47ZM1461.19 320.406H1461.75C1467.91 320.406 1472.5 318.766 1475.53 315.484C1478.59 312.172 1480.12 307.609 1480.12 301.797C1480.12 296.297 1478.58 291.922 1475.48 288.672C1472.39 285.391 1467.81 283.75 1461.75 283.75H1461.19V320.406Z" fill="black"/>
</g>
</svg>
